%TF.GenerationSoftware,KiCad,Pcbnew,(6.0.9)*%
%TF.CreationDate,2023-06-10T14:31:44-07:00*%
%TF.ProjectId,V01,5630312e-6b69-4636-9164-5f7063625858,rev?*%
%TF.SameCoordinates,Original*%
%TF.FileFunction,Legend,Bot*%
%TF.FilePolarity,Positive*%
%FSLAX46Y46*%
G04 Gerber Fmt 4.6, Leading zero omitted, Abs format (unit mm)*
G04 Created by KiCad (PCBNEW (6.0.9)) date 2023-06-10 14:31:44*
%MOMM*%
%LPD*%
G01*
G04 APERTURE LIST*
%ADD10C,0.120000*%
G04 APERTURE END LIST*
D10*
%TO.C,REF\u002A\u002A*%
X136975000Y-99264600D02*
X142175000Y-99264600D01*
X136975000Y-79394600D02*
X136975000Y-78824600D01*
X136975000Y-97174600D02*
X136975000Y-96154600D01*
X142175000Y-94634600D02*
X142175000Y-93614600D01*
X136975000Y-78824600D02*
X142175000Y-78824600D01*
X142175000Y-92094600D02*
X142175000Y-91074600D01*
X136975000Y-94634600D02*
X136975000Y-93614600D01*
X142175000Y-79394600D02*
X142175000Y-78824600D01*
X136975000Y-84474600D02*
X136975000Y-83454600D01*
X142175000Y-99264600D02*
X142175000Y-98694600D01*
X136975000Y-92094600D02*
X136975000Y-91074600D01*
X142175000Y-97174600D02*
X142175000Y-96154600D01*
X136975000Y-81934600D02*
X136975000Y-80914600D01*
X142175000Y-84474600D02*
X142175000Y-83454600D01*
X142175000Y-87014600D02*
X142175000Y-85994600D01*
X142175000Y-89554600D02*
X142175000Y-88534600D01*
X142175000Y-98694600D02*
X143535000Y-98694600D01*
X136975000Y-99264600D02*
X136975000Y-98694600D01*
X142175000Y-81934600D02*
X142175000Y-80914600D01*
X136975000Y-89554600D02*
X136975000Y-88534600D01*
X136975000Y-87014600D02*
X136975000Y-85994600D01*
%TD*%
M02*
