M48
; DRILL file {KiCad (6.0.9)} date Sat Jun 10 14:31:51 2023
; FORMAT={-:-/ absolute / inch / decimal}
; #@! TF.CreationDate,2023-06-10T14:31:51-07:00
; #@! TF.GenerationSoftware,Kicad,Pcbnew,(6.0.9)
; #@! TF.FileFunction,Plated,1,2,PTH
FMAT,2
INCH
; #@! TA.AperFunction,Plated,PTH,ViaDrill
T1C0.0157
; #@! TA.AperFunction,Plated,PTH,ComponentDrill
T2C0.0394
%
G90
G05
T1
X5.5Y-3.1
X5.5Y-3.2
X5.5Y-3.3
X5.5Y-3.4
X5.5Y-3.5
X5.5Y-3.6
X5.5Y-3.7
X5.5Y-3.8
X5.725Y-3.2
X5.725Y-3.3
X5.725Y-3.4
X5.725Y-3.5
X5.725Y-3.6
X5.725Y-3.7
X5.725Y-3.8
X5.725Y-3.9
T2
X6.1801Y-3.1504
X6.1801Y-3.2504
X6.1801Y-3.3504
X6.1801Y-3.4504
X6.1801Y-3.5504
X6.1801Y-3.6504
X6.1801Y-3.7504
X6.1801Y-3.8504
X6.2801Y-3.1504
X6.2801Y-3.2504
X6.2801Y-3.3504
X6.2801Y-3.4504
X6.2801Y-3.5504
X6.2801Y-3.6504
X6.2801Y-3.7504
X6.2801Y-3.8504
T0
M30
